<svg xmlns="http://www.w3.org/2000/svg" width="67.005" height="67.006" viewBox="0 0 67.005 67.006">
  <g id="Group_55926" data-name="Group 55926" transform="translate(-1400 -1122)">
    <g id="svgexport-6" transform="translate(1400 1122)">
      <g id="Dairy_Product" data-name="Dairy Product">
        <g id="Outline">
          <path id="Path_9211" data-name="Path 9211" d="M291.141,410.125a1.047,1.047,0,0,0,1.047-1.047c0-2-4.188-1.019-4.188,2.094s4.188,4.1,4.188,2.094a1.047,1.047,0,0,0-1.047-1.047,1.047,1.047,0,1,1,0-2.094Z" transform="translate(-250.31 -354.636)" fill="#80b600"/>
          <path id="Path_9212" data-name="Path 9212" d="M270.282,355.141a3.141,3.141,0,1,0-3.141,3.141A3.141,3.141,0,0,0,270.282,355.141Zm-4.188,0a1.047,1.047,0,1,1,1.047,1.047A1.047,1.047,0,0,1,266.094,355.141Z" transform="translate(-229.451 -305.934)" fill="#80b600"/>
          <path id="Path_9213" data-name="Path 9213" d="M227.141,432a3.141,3.141,0,1,0,3.141,3.141A3.141,3.141,0,0,0,227.141,432Zm0,4.188a1.047,1.047,0,1,1,1.047-1.047A1.047,1.047,0,0,1,227.141,436.188Z" transform="translate(-194.685 -375.465)" fill="#80b600"/>
          <path id="Path_9214" data-name="Path 9214" d="M195.121,244.6a17.211,17.211,0,0,1-16.843-3.393l.808-2.1a4.264,4.264,0,0,0,2.474-6.426l2.765-7.182c4.521,1.4,7.211-5.841,3.016-7.833l2.269-5.892,3.08,8a1.047,1.047,0,0,0,1.954-.752l-3.509-9.113h5.085l1.18,3.064c-3.152,2.635-.961,8.54,3.8,7.253a1.047,1.047,0,1,0-.546-2.021c-2.77.748-3.473-2.9-1.5-3.89a1.047,1.047,0,0,0,.507-1.312l-1.74-4.518a1.047,1.047,0,0,0-.977-.671c-7.524,0-7.953-.246-8.306.671-3.61,9.759-4.021,9.593-3.577,10.366a1.047,1.047,0,0,0,.738.513c2.265.373,1.707,3.077.492,3.933a1.658,1.658,0,0,1-1.973-.1,1.047,1.047,0,0,0-1.54.506l-3.383,8.787a1.047,1.047,0,0,0,.226,1.105,2.134,2.134,0,0,1-1.353,3.523,1.047,1.047,0,0,0-.914.669l-1.28,3.325a1.047,1.047,0,0,0,.247,1.127,19.175,19.175,0,0,0,19.474,4.343,1.047,1.047,0,0,0-.671-1.984Z" transform="translate(-152.967 -180.592)" fill="#80b600"/>
          <path id="Path_9215" data-name="Path 9215" d="M344.08,320H321.047a1.047,1.047,0,0,0,0,2.094h1.139l2.007,22.081a1.047,1.047,0,0,0,1.042.952h14.657a1.047,1.047,0,0,0,1.043-.952l.762-8.385a1.047,1.047,0,1,0-2.085-.189l-.675,7.432H326.191l-1.9-20.939H340.84l-.47,5.167a1.047,1.047,0,1,0,2.085.19l.487-5.357h1.138a1.047,1.047,0,0,0,0-2.094Z" transform="translate(-278.122 -278.122)" fill="#80b600"/>
          <path id="Path_9216" data-name="Path 9216" d="M274.446,25.105a1.047,1.047,0,0,0,1.236-.816,9.422,9.422,0,0,1,3.58-5.654,1.051,1.051,0,0,0,.112-.1c1.39-1.391,1.595-4-1.09-6.242a1.508,1.508,0,0,1-.523-1.489c.034-.093.12-.34.72-.339,12.679.241,13.315-.372,13.581.355a1.465,1.465,0,0,1-.515,1.472,5.035,5.035,0,0,0-2.081,3.574,3.643,3.643,0,0,0,1.1,2.764,9.47,9.47,0,0,1,3.769,7.538,1.047,1.047,0,0,0,2.094,0,11.575,11.575,0,0,0-4.52-9.148c-.856-1.061-.063-2.253.978-3.123,1.895-1.584,1.784-4.754-.645-5.414V1.047A1.047,1.047,0,0,0,291.2,0H278.633a1.047,1.047,0,0,0-1.047,1.047V8.488c-2.454.654-2.544,3.828-.645,5.415,1.055.882,1.827,2.069.978,3.123a11.515,11.515,0,0,0-4.288,6.844A1.047,1.047,0,0,0,274.446,25.105ZM279.68,2.094h10.469V4.188h-7.329a1.047,1.047,0,1,0,0,2.094h7.329V8.376H279.68Z" transform="translate(-237.802)" fill="#80b600"/>
          <path id="Path_9217" data-name="Path 9217" d="M39.329,271.706a1.047,1.047,0,0,0-1.047-1.047,4.193,4.193,0,0,1-4.188-4.188c0-1.593,2.312-5.206,4.188-7.711,1.876,2.5,4.188,6.116,4.188,7.711a1.047,1.047,0,0,0,2.094,0c0-3.167-4.905-9.379-5.465-10.077a1.047,1.047,0,0,0-1.634,0c-.559.7-5.465,6.91-5.465,10.077C32,272.244,39.329,274.234,39.329,271.706Z" transform="translate(-27.812 -222.5)" fill="#80b600"/>
          <path id="Path_9218" data-name="Path 9218" d="M24.08,64.911H20.939V18.088l5.248-8.745,5.266,8.746V28.268a1.047,1.047,0,1,0,2.094,0V17.8c0-.533.05-.106-6.325-10.8V1.047A1.047,1.047,0,0,0,26.174,0H7.329A1.047,1.047,0,0,0,6.282,1.047V7.039l-.838,1.4a1.047,1.047,0,1,0,1.8,1.077l.682-1.137h16.4L19.3,16.751H15.7a1.047,1.047,0,1,0,0,2.094h3.141v8.376H2.094V18.845h9.423a1.047,1.047,0,1,0,0-2.094H2.9l.036-.06a1.047,1.047,0,1,0-1.8-1.077C.1,17.348,0,17.412,0,17.8v48.16A1.047,1.047,0,0,0,1.047,67H24.08a1.047,1.047,0,1,0,0-2.094ZM8.376,6.282V2.094H25.127V6.282ZM18.845,64.911H2.094V56.535H18.845Zm0-10.469H2.094V29.315H18.845Z" fill="#80b600"/>
          <ellipse id="Ellipse_12" data-name="Ellipse 12" cx="1" cy="1.5" rx="1" ry="1.5" transform="translate(3 11)" fill="#80b600"/>
          <circle id="Ellipse_13" data-name="Ellipse 13" cx="1" cy="1" r="1" transform="translate(14 47)" fill="#80b600"/>
          <ellipse id="Ellipse_14" data-name="Ellipse 14" cx="1.5" cy="0.5" rx="1.5" ry="0.5" transform="translate(56 30)" fill="#80b600"/>
          <circle id="Ellipse_15" data-name="Ellipse 15" cx="1" cy="1" r="1" transform="translate(62 53)" fill="#80b600"/>
          <path id="Path_9219" data-name="Path 9219" d="M433.047,256A1.047,1.047,0,0,0,432,257.047v4.188a1.047,1.047,0,1,0,2.094,0v-4.188A1.047,1.047,0,0,0,433.047,256Z" transform="translate(-375.465 -222.498)" fill="#80b600"/>
        </g>
      </g>
    </g>
  </g>
</svg>
