<svg xmlns="http://www.w3.org/2000/svg" width="34" height="34" viewBox="0 0 34 34">
  <g id="Group_55934" data-name="Group 55934" transform="translate(-511 -1911)">
    <g id="gift-card-applied" transform="translate(491 1423)">
      <ellipse id="Ellipse_173" data-name="Ellipse 173" cx="16" cy="15.5" rx="16" ry="15.5" transform="translate(22 490)" fill="rgba(177,215,254,0.86)"/>
      <path id="correct_3_" data-name="correct (3)" d="M24.515,11.606a1.328,1.328,0,0,1,0,1.878l-8.91,8.91a1.328,1.328,0,0,1-1.878,0L9.485,18.153a1.328,1.328,0,1,1,1.878-1.878l3.3,3.3,7.971-7.971A1.328,1.328,0,0,1,24.515,11.606ZM34,17A17,17,0,1,1,17,0,16.991,16.991,0,0,1,34,17Zm-2.656,0A14.344,14.344,0,1,0,17,31.344,14.336,14.336,0,0,0,31.344,17Zm0,0" transform="translate(20 488)" fill="#fff"/>
    </g>
  </g>
</svg>
