<svg xmlns="http://www.w3.org/2000/svg" width="57.975" height="60.003" viewBox="0 0 57.975 60.003">
  <g id="Group_55925" data-name="Group 55925" transform="translate(-1029 -1127)">
    <g id="svgexport-9" transform="translate(1026.975 1125)">
      <g id="Outline" transform="translate(2.025 2)">
        <g id="Group_2986" data-name="Group 2986">
          <circle id="Ellipse_9" data-name="Ellipse 9" cx="1" cy="1" r="1" transform="translate(5.975 40)" fill="#80b600"/>
          <circle id="Ellipse_10" data-name="Ellipse 10" cx="1" cy="1" r="1" transform="translate(6.975 33)" fill="#80b600"/>
          <circle id="Ellipse_11" data-name="Ellipse 11" cx="1" cy="1" r="1" transform="translate(12.747 33)" fill="#80b600"/>
          <path id="Path_9209" data-name="Path 9209" d="M23.014,59.91a17.4,17.4,0,0,1-11.257-2.55.967.967,0,0,0-1.168.07c-1.511,1.28-3.445,1.44-4.485.38s-.874-3,.383-4.57v-.05c0-.05.186-.22.294-.32a5.05,5.05,0,0,1,1.354-1A1.008,1.008,0,0,0,8.6,50.54a.988.988,0,0,0-.561-.514.965.965,0,0,0-.754.044A6.864,6.864,0,0,0,5.926,51c-4.063-7.73-1.659-19.6,5.732-27.13s19.05-10,26.627-5.8a6.923,6.923,0,0,0-.9,1.4,1.008,1.008,0,0,0,.461,1.33.909.909,0,0,0,.422.1.98.98,0,0,0,.883-.56,5.168,5.168,0,0,1,.981-1.38c.128-.13.245-.24.373-.35h0c1.511-1.26,3.435-1.43,4.466-.37s.874,3-.383,4.57A1.015,1.015,0,0,0,44.528,24a19.008,19.008,0,0,1,2.336,12.89,1.007,1.007,0,0,0,.844,1.14.994.994,0,0,0,1.119-.86A21.343,21.343,0,0,0,46.55,23.5a5.688,5.688,0,0,0,.569-5.6l7.587-7.14A1.01,1.01,0,0,0,55,10a1.061,1.061,0,0,0-.285-.73l-3.926-4a.953.953,0,0,0-1.4.08s-1.747,2.07-3.926,4.68a1.018,1.018,0,0,0,.123,1.415.973.973,0,0,0,1.389-.125c1.315-1.61,2.483-3,3.19-3.85l2.454,2.5-6.792,6.38a4.112,4.112,0,0,0-1.619-.71V15A12.881,12.881,0,0,0,31.445,2H23.593a.991.991,0,0,0-.981,1V5a13.024,13.024,0,0,0,2.444,7.64.973.973,0,0,0,1.732-.156,1.015,1.015,0,0,0-.152-1.024A11.08,11.08,0,0,1,24.574,5V4h6.87a10.9,10.9,0,0,1,10.8,11v.05A12.76,12.76,0,0,0,30.463,7a1,1,0,0,0,0,2,10.807,10.807,0,0,1,10.119,7.18,5.921,5.921,0,0,0-.766.45c-8.293-5-21.376-2.49-29.542,5.83S-.375,44.11,4.542,52.56c-1.472,2.26-1.433,5,.177,6.67s4.328,1.69,6.546.18A18.93,18.93,0,0,0,21.149,62a15.275,15.275,0,0,0,2.022-.09,1,1,0,0,0-.157-2Z" transform="translate(-2.025 -2)" fill="#80b600"/>
          <path id="Path_9210" data-name="Path 9210" d="M60,40H16a1,1,0,0,0-1,1c0,11.58,10.32,21,23,21a24.21,24.21,0,0,0,15.53-5.51A1,1,0,1,0,52.25,55,22.16,22.16,0,0,1,38,60c-11.21,0-20.39-8-21-18h2c.34,3.67,2.49,7.6,5.93,10.7A19.86,19.86,0,0,0,38,58a19.86,19.86,0,0,0,13-5.3c3.44-3.1,5.59-7,5.93-10.7h2a17.76,17.76,0,0,1-4,10.24,1,1,0,1,0,1.55,1.26A19.64,19.64,0,0,0,61,41a1,1,0,0,0-1-1ZM37,56a17.88,17.88,0,0,1-9.81-4l4.38-3.89L37,43.23ZM21.07,42h14.3l-9.68,8.6A14.92,14.92,0,0,1,21.07,42ZM39,43.23l5.43,4.82,4.38,3.89A17.88,17.88,0,0,1,39,56ZM50.31,50.6,40.63,42h14.3A14.92,14.92,0,0,1,50.31,50.6Z" transform="translate(-3.025 -2)" fill="#80b600"/>
        </g>
      </g>
    </g>
  </g>
</svg>
