<svg xmlns="http://www.w3.org/2000/svg" width="40" height="40" viewBox="0 0 40 40">
  <g id="Group_55932" data-name="Group 55932" transform="translate(-1740 -54)">
    <g id="Group_742" data-name="Group 742" transform="translate(1462 9)">
      <circle id="Ellipse_1" data-name="Ellipse 1" cx="20" cy="20" r="20" transform="translate(278 45)" fill="#80b600"/>
      <path id="bell" d="M76.13,42.4a1.175,1.175,0,0,0-.285-.779,1.068,1.068,0,0,0-.142-.12,2.425,2.425,0,0,1-.771-.851,12.068,12.068,0,0,1-1.248-5.578,6.078,6.078,0,0,0-1.714-4.133,5.891,5.891,0,0,0-2.877-1.682,1.793,1.793,0,1,0-2.356,0,5.891,5.891,0,0,0-2.877,1.683,6.081,6.081,0,0,0-1.714,4.133,11.478,11.478,0,0,1-1.367,5.759,2.171,2.171,0,0,1-.631.674,1.011,1.011,0,0,0-.129.108,1.121,1.121,0,0,0-.32.786,1.107,1.107,0,0,0,1.093,1.116h5.166A2.19,2.19,0,0,0,65.9,44a2.013,2.013,0,0,0,4.027,0,2.187,2.187,0,0,0-.057-.484h5.165A1.107,1.107,0,0,0,76.13,42.4ZM67.915,26.685A1.213,1.213,0,1,1,66.707,27.9,1.213,1.213,0,0,1,67.915,26.685ZM60.286,42.4a.536.536,0,0,1,.149-.371.424.424,0,0,1,.054-.045,2.752,2.752,0,0,0,.8-.858,12.069,12.069,0,0,0,1.446-6.053,5.49,5.49,0,0,1,1.552-3.729,4.837,4.837,0,0,1,7.262,0A5.487,5.487,0,0,1,73.1,35.067a12.662,12.662,0,0,0,1.315,5.85,3,3,0,0,0,.952,1.059.479.479,0,0,1,.064.054.624.624,0,0,1,.114.366.527.527,0,0,1-.507.53H60.793A.527.527,0,0,1,60.286,42.4Zm9.056,1.6a1.428,1.428,0,1,1-2.774-.484h2.693A1.4,1.4,0,0,1,69.342,43.995Z" transform="translate(229.8 29.393)" fill="#fff" stroke="#fff" stroke-width="1.5"/>
    </g>
  </g>
</svg>
