<svg xmlns="http://www.w3.org/2000/svg" width="69.685" height="70.869" viewBox="0 0 69.685 70.869">
  <g id="Group_55923" data-name="Group 55923" transform="translate(-203.838 -1116)">
    <g id="svgexport-10" transform="translate(187.838 1100.006)" opacity="0.7">
      <g id="outline_create" data-name="outline create" transform="translate(16 15.994)">
        <path id="Path_9207" data-name="Path 9207" d="M227.543,51.543A3.547,3.547,0,0,0,231.087,48h-2.362a1.181,1.181,0,1,1-2.362,0H224A3.547,3.547,0,0,0,227.543,51.543Z" transform="translate(-193.291 -43.275)" fill="#80b600"/>
        <path id="Path_9208" data-name="Path 9208" d="M25.049,78.956a32.658,32.658,0,0,0,21.66,7.905,34.3,34.3,0,0,0,10.069-1.5,29.634,29.634,0,0,0,6.467.714h.017a11.87,11.87,0,0,0,7.424.345,11.81,11.81,0,1,0,5.343-22.983,4.711,4.711,0,0,0,.03-2.673,4.724,4.724,0,0,0,0-9.233,4.722,4.722,0,0,0-8.089-4.409,4.731,4.731,0,0,0-2.312-1.441A10.148,10.148,0,0,1,68.6,39.474l.2-.2-1.67-1.67-.2.2a12.572,12.572,0,0,0-2.668,3.929,14.125,14.125,0,0,0-3.671-11.809,7.794,7.794,0,0,1-2.074-5.513c0-.2,0-.4-.01-.6a8.268,8.268,0,0,0-16.523.448c0,.051,0,.1,0,.153A8.118,8.118,0,0,1,39.8,30.041a14.207,14.207,0,0,0-3.539,7.293,11.962,11.962,0,0,0-1.368-.079,11.811,11.811,0,0,0-8.351,20.162,11.973,11.973,0,0,0,1.265,1.1H17.181A1.181,1.181,0,0,0,16,59.7,25.518,25.518,0,0,0,25.049,78.956ZM57,83l-.028-.006A27.182,27.182,0,0,1,36.246,59.584c0-.006,0-.012,0-.019a27.6,27.6,0,0,1-.166-3.012,27.312,27.312,0,0,1,.675-6.043c.949.092,1.91.138,2.869.138l.212,0A29.416,29.416,0,0,0,41.3,56.934l.011.034A29.749,29.749,0,0,0,55.8,73.445a11.754,11.754,0,0,0,3.258,9.868c.033.034.068.065.1.1Q58.068,83.246,57,83ZM40.2,41.251q-.1.513-.188,1.027l-3.937,3.937V39.692A9.228,9.228,0,0,1,40.2,41.251Zm8.36,2.78a27.268,27.268,0,0,1-.63-4.48,1.181,1.181,0,0,0-1.377-1.1c-.3.051-.608.1-.915.138a4.722,4.722,0,1,1,2.923,5.44ZM44.45,41.1c.409-.034.819-.076,1.225-.126a29.551,29.551,0,0,0,.726,4.184,29.217,29.217,0,0,0,3.341,8.05c.054.09.109.179.164.268a4.72,4.72,0,0,0,2.885,7.3A4.721,4.721,0,0,0,60,65.958a11.925,11.925,0,0,0-3.619,5.129A27.377,27.377,0,0,1,43.546,56.21l-.011-.032a27.085,27.085,0,0,1-1.462-6.838c-.01-.119-.018-.238-.027-.354-.011-.162-.021-.325-.03-.489v-.012c-.022-.455-.034-.92-.034-1.381a27.482,27.482,0,0,1,.306-4.088q.135-.911.34-1.825C43.246,41.178,43.857,41.146,44.45,41.1Zm10.527,9.152a2.362,2.362,0,1,1,4.179,1.51,4.748,4.748,0,0,0-1.338.8,2.388,2.388,0,0,1-.962,0,4.729,4.729,0,0,0-1.335-.8,2.346,2.346,0,0,1-.545-1.51ZM66.31,54.471a2.366,2.366,0,0,1,.928-.565l.015,0h0l.012,0a2.373,2.373,0,0,1,1.4,0l.036.011a2.364,2.364,0,0,1,1.08,3.754,4.754,4.754,0,0,0-1.455.907l-.012-.079a2.357,2.357,0,0,1-2.008-.654l-.028-.027a2.359,2.359,0,0,1-.334-2.879,2.317,2.317,0,0,1,.362-.458Zm7.564,7.587a2.353,2.353,0,0,1-.324,1.188,11.873,11.873,0,0,0-1.829.189,5.711,5.711,0,0,1-.7.084,21.327,21.327,0,0,0-1-3.293,2.356,2.356,0,0,1,.757-.415l.015,0h0l.012,0a2.371,2.371,0,0,1,1.4,0l.03.009a2.355,2.355,0,0,1,.922.559c.037.037.072.074.108.114A2.355,2.355,0,0,1,73.874,62.058ZM55.527,60.547a4.73,4.73,0,0,0,1.329-.8,2.388,2.388,0,0,1,.961,0,4.746,4.746,0,0,0,1.332.8,2.352,2.352,0,0,1,.551,1.511,2.171,2.171,0,0,1-.022.315,2.361,2.361,0,1,1-4.151-1.827Zm5.354,4.633c.021.023.041.048.062.071q-.225.152-.443.313A4.8,4.8,0,0,0,60.882,65.18Zm2.305-1.112a2.361,2.361,0,0,1-1.1-1.678,2.223,2.223,0,0,1-.024-.332,2.345,2.345,0,0,1,.549-1.511,4.75,4.75,0,0,0,1.334-.8,2.39,2.39,0,0,1,.958,0,4.749,4.749,0,0,0,1.332.8,2.353,2.353,0,0,1,.2,2.743A11.654,11.654,0,0,0,63.187,64.068Zm.057-7.916a2.362,2.362,0,0,1-2.362,2.362h-.464a1.19,1.19,0,0,0-.241-.107h0a2.362,2.362,0,1,1,3.067-2.255Zm-7.087,0A2.362,2.362,0,1,1,53.8,53.79,2.362,2.362,0,0,1,56.157,56.153Zm-16.51-7.868h-.025c-.729,0-1.459-.032-2.183-.09l2.2-2.2q-.021.557-.021,1.113C39.622,47.5,39.632,47.893,39.647,48.285Zm-5.931-2.07L29.105,41.6a9.351,9.351,0,0,1,4.611-1.91Zm-1.67,1.67H25.524a9.351,9.351,0,0,1,1.91-4.611Zm1.67,10.554a9.351,9.351,0,0,1-4.611-1.91l4.611-4.612Zm1.82,8.343h-1.82v2.362h2.362v-1a29.483,29.483,0,0,0,7.67,10.586A25.378,25.378,0,0,1,29.515,72.7,17.654,17.654,0,0,1,23.23,60.877h10.8a29.409,29.409,0,0,0,1.5,5.906Zm47.784,8.062a9.455,9.455,0,0,1-12.281,9.221,1.183,1.183,0,0,0-.709,0A9.45,9.45,0,1,1,67.5,65.6h.024a9.542,9.542,0,0,1,1.486.123c.013.1.024.2.034.3,0,.015,0,.031.006.047a18.787,18.787,0,0,1,.1,1.976v.922c-.744-.239-1.181-.674-1.181-1.006H65.606c0,1.987,2.075,3.543,4.724,3.543s4.724-1.556,4.724-3.543H72.693c0,.332-.437.768-1.181,1.006v-.922a21.179,21.179,0,0,0-.113-2.189c.251-.021.5-.055.752-.1a9.456,9.456,0,0,1,11.17,9.086Zm-5.9-18.692a2.357,2.357,0,0,1-2.841,2.312,4.75,4.75,0,0,0-1.339-.8,2.362,2.362,0,1,1,4.18-1.508Zm-5.906-8.268a2.362,2.362,0,0,1,1.817,3.872,4.748,4.748,0,0,0-1.338.8,2.386,2.386,0,0,1-.958,0,4.769,4.769,0,0,0-1.339-.8,2.362,2.362,0,0,1,1.818-3.871Zm-4.724,2.362a2.346,2.346,0,0,1-.545,1.508,4.745,4.745,0,0,0-1.338.8,2.391,2.391,0,0,1-.958,0,4.746,4.746,0,0,0-1.338-.8,2.362,2.362,0,1,1,4.179-1.509Zm-3.5-4.586q-.127.032-.252.069.172-.36.323-.729Q63.316,45.33,63.29,45.662ZM41.545,31.637a10.469,10.469,0,0,0,2.8-7.271v-.021c0-.028,0-.055,0-.083a5.906,5.906,0,0,1,11.8-.325c.007.144.01.29.008.432a10.142,10.142,0,0,0,2.712,7.17,11.8,11.8,0,0,1,1.1,14.784,4.725,4.725,0,0,0-7.178,5.212,4.7,4.7,0,0,0-1.071.372,27.017,27.017,0,0,1-2.08-4.293c-.122-.322-.236-.65-.347-.979a7.085,7.085,0,1,0-6.083-7.828c-.406.018-.817.028-1.229.028-.084,0-.168,0-.251,0a1.166,1.166,0,0,0-.65.172,11.885,11.885,0,0,0-2.507-1.165,11.835,11.835,0,0,1,2.967-6.2ZM25.524,50.247h6.522l-4.612,4.611A9.351,9.351,0,0,1,25.524,50.247Zm-4.663,10.63a19.939,19.939,0,0,0,7.094,13.6,28.25,28.25,0,0,0,18.754,6.771c.111,0,.221,0,.333,0a29.357,29.357,0,0,0,5.313,2.767,32.376,32.376,0,0,1-5.646.493C31.531,84.5,19.1,74.008,18.394,60.877Z" transform="translate(-16 -15.994)" fill="#80b600"/>
        <rect id="Rectangle_132" data-name="Rectangle 132" width="2.371" height="2.371" transform="translate(11.856 47.425)" fill="#80b600"/>
      </g>
    </g>
  </g>
</svg>
