<svg xmlns="http://www.w3.org/2000/svg" width="65" height="59.737" viewBox="0 0 65 59.737">
  <g id="Group_55924" data-name="Group 55924" transform="translate(-581 -1121.131)">
    <g id="svgexport-7" transform="translate(576.365 1096.606)">
      <path id="Path_9205" data-name="Path 9205" d="M223,412.762a.776.776,0,0,0,.776-.776V408.8a.776.776,0,1,0-1.553,0v3.182A.776.776,0,0,0,223,412.762Z" transform="translate(-189.434 -333.881)" fill="#80b600"/>
      <path id="Path_9206" data-name="Path 9206" d="M6.925,78.23h.014l.961-.017a2.238,2.238,0,0,0,2.129,3.9l4.455-1.787a8.573,8.573,0,0,0,1.971,2.19,8.222,8.222,0,0,0,4.433,1.743l37.839-5.279a2.9,2.9,0,0,0,2.245-1.746,14.882,14.882,0,0,0,5.8-5.264.777.777,0,0,0-1.308-.839,13.235,13.235,0,0,1-4.36,4.251,2.865,2.865,0,0,0-2.359-2.112L39.758,70.4a18.754,18.754,0,0,1-1.367-6.674A12.466,12.466,0,0,0,42.2,56.338a10.908,10.908,0,0,0,.04-2.157A14.949,14.949,0,0,1,46.906,51.1a7.676,7.676,0,0,0,3.324,2.2,19.025,19.025,0,0,0-2.1,1.179,3.071,3.071,0,0,0-1.541,3.044,1.355,1.355,0,0,0,1.875,1.09,5.733,5.733,0,0,1,2.937-.411,5,5,0,0,0,3.561-.8,5.085,5.085,0,0,0,2.468,2.714,5.7,5.7,0,0,1,2.158,2.025,1.338,1.338,0,0,0,1.025.636c.043,0,.086.006.128.006a1.352,1.352,0,0,0,1.007-.449,3.07,3.07,0,0,0,.5-3.374,18.885,18.885,0,0,0-1.034-2.175,7.687,7.687,0,0,0,4.025.112,11.7,11.7,0,0,1,2.135,9.091.776.776,0,0,0,.765.906h0a.775.775,0,0,0,.766-.643,13.121,13.121,0,0,0-2.168-9.921,8.048,8.048,0,0,0,2.694-2.282.99.99,0,0,0-1.085-1.543,3.484,3.484,0,0,1-3.457-.613,6.3,6.3,0,0,0-5.214-1.725,19.3,19.3,0,0,0,.34-3.368,6.586,6.586,0,0,0,3.825-2.18q.067-.078.132-.16a6.079,6.079,0,0,0-1.184-8.3,1.558,1.558,0,0,1-.4-.472l-.018-.034a1.669,1.669,0,0,1-.068-1.364A7.34,7.34,0,0,0,60.33,26a7.075,7.075,0,0,0-8.508-.107,1.448,1.448,0,0,1-1.074.246,1.523,1.523,0,0,1-.551-.218A6.069,6.069,0,0,0,42.245,27.1c-.044.054-.086.109-.127.163a5.746,5.746,0,0,0-.728,5.679,6.015,6.015,0,0,0,1.8,2.422,12.419,12.419,0,0,1-1.278,6.871c-.093-.105-.181-.2-.262-.281,1.087-3.18.26-6.494-2.412-9.618a6.963,6.963,0,0,0-9.275-1.2c-3.349,2.314-5,5.269-4.806,8.579A6.837,6.837,0,0,0,20.745,44.7c-1.9-2.326-4.844-3.45-8.6-3.264a6.94,6.94,0,0,0-6.615,6.6c-.2,4.061,1.141,7.17,3.895,9.034a7.26,7.26,0,0,0,.238,4.979,7.514,7.514,0,0,0,4.7,3.823,17.066,17.066,0,0,0,2.007,3.713,8.629,8.629,0,0,0-1.867,2.079l-4.48-1.8a2.238,2.238,0,0,0-2.12,3.91l-.967-.02H6.925a2.238,2.238,0,1,0,0,4.476ZM63.847,53.041a4.621,4.621,0,0,0,3.24,1.225c-1.352,1.111-3.514,1.952-6.636.6a1.046,1.046,0,0,0-1.286,1.541,16.917,16.917,0,0,1,1.642,3.129,1.6,1.6,0,0,1-.055,1.552,7.154,7.154,0,0,0-2.6-2.346A3.431,3.431,0,0,1,56.2,55.948a.8.8,0,0,0-1.446-.445A3.327,3.327,0,0,1,51.6,56.667a7.174,7.174,0,0,0-3.483.416,1.609,1.609,0,0,1,.855-1.3,17,17,0,0,1,3.154-1.609,1.045,1.045,0,0,0-.161-2c-3.333-.695-4.609-2.627-5.068-4.312a4.63,4.63,0,0,0,3.358.868,5.9,5.9,0,0,1,3.561.549,4.062,4.062,0,0,1,.913.657c-.079.769-.176,1.429-.256,1.863a.776.776,0,0,0,1.527.28c.045-.247,1.077-6-.261-8.918a9.966,9.966,0,0,0,1.185-.366,7.7,7.7,0,0,1,.934-.29c.538.963,1.274,6.124-.654,10.431a.776.776,0,1,0,1.417.634,14.482,14.482,0,0,0,.645-1.74,4.744,4.744,0,0,1,4.581,1.209Zm-12.688-5.92a8.552,8.552,0,0,1,3.587-1.743,15.944,15.944,0,0,1,.11,2.71A6.889,6.889,0,0,0,51.159,47.121ZM42.827,32.359a4.153,4.153,0,0,1,.53-4.158q.046-.061.095-.122a4.573,4.573,0,0,1,5.921-.841,3.067,3.067,0,0,0,1.115.432,2.993,2.993,0,0,0,2.22-.5,5.534,5.534,0,0,1,6.652.045,5.777,5.777,0,0,1,1.492,6.527A3.222,3.222,0,0,0,61,36.374l.018.034a3.1,3.1,0,0,0,.785.948,4.563,4.563,0,0,1,.957,6.134c-.032.041-.065.08-.1.12a5.086,5.086,0,0,1-2.688,1.619,10.254,10.254,0,0,0-.672-3.292A1.545,1.545,0,0,0,58.38,41a3.443,3.443,0,0,0-1.975.335c-.238.084-.481.17-.706.236A1.473,1.473,0,0,1,55.389,40a1,1,0,0,0-.637-1.632A5.061,5.061,0,0,1,50.2,34.836a1,1,0,0,0-1.735-.331,2.129,2.129,0,0,1-2.136.6A4.462,4.462,0,0,1,42.827,32.359ZM53.838,41.28l-2.52.2,1.74-1.9q.36.114.758.2A2.938,2.938,0,0,0,53.838,41.28Zm-4.294-4.265-1.815,2.264.079-2.675a3.389,3.389,0,0,0,1.211-.519,6.6,6.6,0,0,0,.525.93ZM44.816,36.3a6.187,6.187,0,0,0,1.28.338c.053.008.1.014.156.02l-.1,3.4a1.278,1.278,0,0,0,2.276.838L50.583,38.2a6.386,6.386,0,0,0,.979.715L50.021,40.6A1.464,1.464,0,0,0,51.1,43.052q.059,0,.118,0l2.938-.234a1.414,1.414,0,0,0,.127.9c.025.05.049.1.072.156a9.971,9.971,0,0,0-5.415,3.261,3.728,3.728,0,0,1-2.051-1.43.99.99,0,0,0-1.778.633,8,8,0,0,0,.9,3.464,16.589,16.589,0,0,0-4.078,2.564c-.029-.106-.056-.2-.082-.285a10.43,10.43,0,0,0,1.752-4.4,10.982,10.982,0,0,0,2.833-5.211l-1.523-.3a10.026,10.026,0,0,1-1.406,3.215,6.673,6.673,0,0,0-.6-1.669A15.033,15.033,0,0,0,44.817,36.3Zm-18.639,4.72a.776.776,0,0,0,.58-.852c-.388-3,.987-5.608,4.088-7.75a5.415,5.415,0,0,1,7.212.935c2.447,2.862,3.108,5.733,1.962,8.535a.776.776,0,0,0,.249.912,5.352,5.352,0,0,1,1.517,2.2c.72,1.955.239,4.149-1.43,6.521a.776.776,0,0,0-.081.747,8.463,8.463,0,0,1,.387,3.895,11.281,11.281,0,0,1-4.163,7.22c.017-3.185-.669-6.808-3.21-9.483a9.976,9.976,0,0,0-1.55-1.33c.26-1.1.529-2.174.8-3.218,1.2-.416,4.508-1.784,5.545-4.471a.777.777,0,1,0-1.449-.559c-.6,1.567-2.355,2.6-3.6,3.162,1.413-5.214,2.724-9.155,2.741-9.207a.776.776,0,1,0-1.473-.492c-.018.053-1.363,4.1-2.8,9.431a6.368,6.368,0,0,1-1.453-5.621.776.776,0,0,0-1.5-.386c-1,3.9,1.5,6.819,2.485,7.789-.233.9-.465,1.822-.691,2.76a8.371,8.371,0,0,0-.914-.367c-.755-2.186-2.256-4.806-5.2-5.727a7.031,7.031,0,0,0-2-.316C22.594,41.989,26.023,41.058,26.178,41.018Zm11.79,29.116L36.4,69.9a17.49,17.49,0,0,1-.073-3.846c.023-.2.044-.4.063-.6.179-.134.354-.268.522-.4A20.922,20.922,0,0,0,37.968,70.135Zm-22.26-5.126a.776.776,0,0,0-.507-.5,6.254,6.254,0,0,1-4.117-3.1,5.982,5.982,0,0,1-.009-4.366.776.776,0,0,0-.322-.98c-2.622-1.524-3.857-4.2-3.668-7.957a5.392,5.392,0,0,1,5.141-5.124c3.77-.188,6.457,1.043,7.985,3.658a.782.782,0,0,0,.868.359c.2-.052,4.969-1.2,6.992,5.249a.782.782,0,0,0,.573.526,7.844,7.844,0,0,1,3.579,2.25c2.234,2.4,3.122,6.15,2.566,10.844a18.592,18.592,0,0,0,.026,3.789l-2.608-.394a.772.772,0,0,0-.249-.52c-.98-.9-1.988-1.9-3-2.979.3-1.258.977-4.844-.515-7.283a.776.776,0,1,0-1.325.81c.9,1.475.765,3.645.537,5.06-2.111-2.34-4.2-4.893-6.068-7.28.407-1.223,1.319-4.63-.181-7.083a.776.776,0,1,0-1.325.81c.87,1.423.635,3.416.323,4.743-3.276-4.28-5.611-7.692-5.657-7.76a.776.776,0,1,0-1.283.875c.048.07,2.447,3.576,5.81,7.961a6.424,6.424,0,0,1-5.383-2.282.776.776,0,0,0-1.221.959,7.854,7.854,0,0,0,6.356,2.876,9.985,9.985,0,0,0,1.378-.094c1.918,2.452,4.072,5.077,6.246,7.476-1.5.272-4.117.417-5.956-1.272a.776.776,0,1,0-1.05,1.143,7.533,7.533,0,0,0,5.212,1.852,11.9,11.9,0,0,0,3.015-.4c.673.713,1.344,1.4,2.007,2.039L22.257,67.76l-.05-.006a8.089,8.089,0,0,0-4.536.967,15.3,15.3,0,0,1-1.962-3.713Zm.283,7.223a6.813,6.813,0,0,1,6.06-2.931l5.771.872V74.06a.776.776,0,0,0,1.553,0V70.406l15.735,2.378V75.02a.776.776,0,1,0,1.553,0v-2l11.852,1.791a1.325,1.325,0,0,1,1.134,1.318,1.34,1.34,0,0,1-1.143,1.32l-4.719.681v-.518a.776.776,0,0,0-1.553,0v.743L40.023,80.118V77.737a.776.776,0,0,0-1.553,0v2.6L22.13,82.7V78.558a.776.776,0,0,0-1.553,0v4.1a6.909,6.909,0,0,1-4.612-2.909,7.42,7.42,0,0,0,.857-2.027,7.2,7.2,0,0,0-.831-5.495ZM9.45,80.674a.692.692,0,0,1-.9-.38.677.677,0,0,1,.005-.522.684.684,0,0,1,.379-.369l3.131-1.265,1.436-.026a8.346,8.346,0,0,0,.276.826Zm-.9-8.99a.692.692,0,0,1,.9-.38l4.343,1.742a8.31,8.31,0,0,0-.286.842l-1.515-.03L8.934,72.576a.684.684,0,0,1-.382-.891ZM6.918,75.307l8.548.176a5.409,5.409,0,0,1,0,1.042l-8.546.153a.686.686,0,0,1,0-1.37Z" fill="#80b600"/>
    </g>
  </g>
</svg>
