<svg xmlns="http://www.w3.org/2000/svg" width="19.379" height="19.045" viewBox="0 0 19.379 19.045">
  <g id="Group_55952" data-name="Group 55952" transform="translate(-1193.115 -46.356)">
    <g id="zoom_out" transform="translate(1194.116 47.357)">
      <path id="Path_9200" data-name="Path 9200" d="M19,17.111l-3.86-3.751a7.019,7.019,0,0,0-1.065-9.688,7.482,7.482,0,0,0-10,.346,7.014,7.014,0,0,0-.356,9.738,7.478,7.478,0,0,0,9.947,1.037l3.851,3.76a1.067,1.067,0,0,0,1.48,0h0a1,1,0,0,0,0-1.442Zm-9.7-2.925A5.127,5.127,0,0,1,4.1,9.128,5.127,5.127,0,0,1,9.294,4.07a5.127,5.127,0,0,1,5.193,5.058,5.127,5.127,0,0,1-5.193,5.058Z" transform="translate(-1.924 -1.924)" fill="#80b600" stroke="#80b600" stroke-width="2"/>
    </g>
  </g>
</svg>
